<svg width="20" height="20" viewBox="0 0 20 20" fill="none" xmlns="http://www.w3.org/2000/svg">
<path d="M17.3125 5.33919H9.76262L8.27819 3.23823C8.22624 3.16458 8.15757 3.10452 8.07792 3.06308C7.99827 3.02164 7.90994 3.00001 7.82031 3H2.6875C1.75712 3 1 3.76347 1 4.70164V15.2984C1 16.2365 1.75712 17 2.6875 17H17.3125C18.2429 17 19 16.2365 19 15.2984V7.04084C19 6.10267 18.2429 5.33919 17.3125 5.33919ZM17.875 15.2984C17.875 15.6109 17.6224 15.8656 17.3125 15.8656H2.6875C2.37756 15.8656 2.125 15.6109 2.125 15.2984V4.70164C2.125 4.38911 2.37756 4.13443 2.6875 4.13443H7.53006L9.0145 6.23539C9.12025 6.38514 9.29069 6.47362 9.47237 6.47362H17.3125C17.6224 6.47362 17.875 6.7283 17.875 7.04084V15.2984ZM13.0471 11.1792C13.0471 11.3297 12.9878 11.4739 12.8823 11.5803C12.7768 11.6867 12.6337 11.7465 12.4846 11.7465H10.5625V13.6846C10.5625 13.8351 10.5032 13.9793 10.3977 14.0857C10.2923 14.1921 10.1492 14.2518 10 14.2518C9.85082 14.2518 9.70774 14.1921 9.60225 14.0857C9.49676 13.9793 9.4375 13.8351 9.4375 13.6846V11.7465H7.51544C7.36625 11.7465 7.22318 11.6867 7.11769 11.5803C7.0122 11.4739 6.95294 11.3297 6.95294 11.1792C6.95294 11.0288 7.0122 10.8845 7.11769 10.7782C7.22318 10.6718 7.36625 10.612 7.51544 10.612H9.4375V8.67385C9.4375 8.52342 9.49676 8.37914 9.60225 8.27277C9.70774 8.1664 9.85082 8.10664 10 8.10664C10.1492 8.10664 10.2923 8.1664 10.3977 8.27277C10.5032 8.37914 10.5625 8.52342 10.5625 8.67385V10.612H12.4846C12.6337 10.612 12.7768 10.6718 12.8823 10.7782C12.9878 10.8845 13.0471 11.0288 13.0471 11.1792Z" fill="white"/>
</svg>
