<svg width="24" height="24" viewBox="0 0 24 24" fill="none" xmlns="http://www.w3.org/2000/svg">
<path d="M18.6979 15.1486C19.812 15.1364 20.8892 14.9527 21.9359 14.5852C22.2603 14.475 22.5541 14.4872 22.799 14.7444C23.0438 15.0016 23.0499 15.2956 22.9214 15.614C21.3422 19.564 18.4837 22.0319 14.297 22.8097C8.81264 23.8262 3.49967 20.6846 1.64503 15.4487C-0.405478 9.64933 2.59377 3.23758 8.35969 1.08808C8.69634 0.965603 9.00239 0.941107 9.27171 1.21056C9.53491 1.46777 9.51655 1.76784 9.4125 2.09853C8.42091 5.18499 8.77592 8.11223 10.5877 10.8006C12.2159 13.2135 14.5174 14.6097 17.4003 15.0261C17.8288 15.0935 18.2634 15.1058 18.6979 15.1486ZM7.61294 3.05386C4.18522 4.87267 1.86539 8.93283 2.62438 13.3604C3.36501 17.6962 6.94576 21.0398 11.3222 21.4808C15.7415 21.9217 19.4141 19.3925 20.9382 16.3918C17.0269 17.0225 13.5564 16.0856 10.7407 13.2686C7.92511 10.4516 6.98248 6.98542 7.61294 3.05386Z" fill="#17C63D"/>
</svg>
