<svg width="18" height="22" viewBox="0 0 18 22" fill="none" xmlns="http://www.w3.org/2000/svg">
<path d="M0.515 21.875C0.671187 21.9615 0.847693 22.0047 1.02618 21.9999C1.20467 21.9952 1.37863 21.9427 1.53 21.848L9 17.179L16.47 21.848C16.6214 21.9426 16.7953 21.995 16.9738 21.9997C17.1522 22.0043 17.3286 21.9612 17.4848 21.8746C17.6409 21.7881 17.771 21.6614 17.8616 21.5076C17.9522 21.3538 18 21.1785 18 21V3C18 2.20435 17.6839 1.44129 17.1213 0.87868C16.5587 0.31607 15.7956 0 15 0H3C2.20435 0 1.44129 0.31607 0.87868 0.87868C0.316071 1.44129 1.1803e-07 2.20435 1.1803e-07 3V21C-8.66149e-05 21.1785 0.0476293 21.3539 0.138192 21.5077C0.228755 21.6616 0.358862 21.7884 0.515 21.875ZM2 3C2 2.73478 2.10536 2.48043 2.29289 2.29289C2.48043 2.10536 2.73478 2 3 2H15C15.2652 2 15.5196 2.10536 15.7071 2.29289C15.8946 2.48043 16 2.73478 16 3V19.2L9.53 15.156C9.37107 15.0567 9.18742 15.004 9 15.004C8.81258 15.004 8.62893 15.0567 8.47 15.156L2 19.2V3Z" fill="white"/>
</svg>
