<svg width="24" height="24" viewBox="0 0 24 24" fill="none" xmlns="http://www.w3.org/2000/svg">
<path fill-rule="evenodd" clip-rule="evenodd" d="M19 6.94H12.529C12.198 6.94 11.888 6.776 11.702 6.502L10.297 4.437C10.111 4.164 9.802 4 9.471 4H5C3.895 4 3 4.895 3 6V18C3 19.105 3.895 20 5 20H19C20.105 20 21 19.105 21 18V8.94C21 7.836 20.105 6.94 19 6.94Z" stroke="#4B4B4B" stroke-opacity="0.5" stroke-width="1.5" stroke-linecap="round" stroke-linejoin="round"/>
<path d="M15.005 13.485C15.002 13.485 15 13.487 15 13.49C15 13.493 15.002 13.495 15.005 13.495C15.008 13.495 15.01 13.493 15.01 13.49C15.01 13.487 15.008 13.485 15.005 13.485" stroke="#4B4B4B" stroke-opacity="0.5" stroke-width="1.5" stroke-linecap="round" stroke-linejoin="round"/>
<path d="M14.995 16.995C14.992 16.995 14.99 16.997 14.99 17C14.99 17.003 14.992 17.005 14.995 17.005C14.998 17.005 15 17.003 15 17C15 16.997 14.998 16.995 14.995 16.995" stroke="#4B4B4B" stroke-opacity="0.5" stroke-width="1.5" stroke-linecap="round" stroke-linejoin="round"/>
<path d="M14.995 9.995C14.992 9.995 14.99 9.997 14.99 10C14.99 10.003 14.992 10.005 14.995 10.005C14.998 10.005 15 10.003 15 10C15 9.997 14.998 9.995 14.995 9.995" stroke="#4B4B4B" stroke-opacity="0.5" stroke-width="1.5" stroke-linecap="round" stroke-linejoin="round"/>
</svg>
