<svg width="24" height="24" viewBox="0 0 24 24" fill="none" xmlns="http://www.w3.org/2000/svg">
<path d="M19.3958 22.0125H12C6.21 22.0125 1.5 17.5207 1.5 12C1.5 6.47924 6.21 1.98749 12 1.98749C17.79 1.98749 22.5 6.47924 22.5 12C22.4979 14.3882 21.612 16.6911 20.013 18.465L20.613 19.065C20.8542 19.3063 21.0184 19.6137 21.0849 19.9483C21.1514 20.2829 21.1172 20.6297 20.9866 20.9449C20.8559 21.2601 20.6348 21.5294 20.3511 21.7189C20.0674 21.9084 19.7339 22.0095 19.3927 22.0095L19.3958 22.0125ZM12 3.48749C7.03725 3.48749 3 7.30649 3 12C3 16.6935 7.03725 20.5125 12 20.5125H19.3958C19.4403 20.5126 19.4839 20.4995 19.5209 20.4748C19.558 20.4502 19.5869 20.415 19.604 20.3739C19.6211 20.3328 19.6257 20.2875 19.617 20.2438C19.6084 20.2001 19.587 20.16 19.5555 20.1285L18.4305 19.0035C18.3602 18.9332 18.3045 18.8495 18.2668 18.7575C18.2291 18.6655 18.2101 18.5668 18.2109 18.4674C18.2116 18.3679 18.2322 18.2696 18.2713 18.1782C18.3104 18.0867 18.3673 18.004 18.4387 17.9347C19.2439 17.1695 19.886 16.2491 20.3261 15.2292C20.7663 14.2093 20.9955 13.1108 21 12C21 7.30649 16.9628 3.48749 12 3.48749Z" fill="#FF8800"/>
<path d="M13.125 16.5H10.875C10.6761 16.5 10.4853 16.421 10.3447 16.2803C10.204 16.1397 10.125 15.9489 10.125 15.75C10.125 15.5511 10.204 15.3603 10.3447 15.2197C10.4853 15.079 10.6761 15 10.875 15H13.125C13.3239 15 13.5147 15.079 13.6553 15.2197C13.796 15.3603 13.875 15.5511 13.875 15.75C13.875 15.9489 13.796 16.1397 13.6553 16.2803C13.5147 16.421 13.3239 16.5 13.125 16.5Z" fill="#FF8800"/>
<path d="M12 16.5C11.8011 16.5 11.6103 16.421 11.4696 16.2803C11.329 16.1397 11.25 15.9489 11.25 15.75V11.1495C11.107 11.0669 10.9953 10.9395 10.9321 10.787C10.8689 10.6345 10.8578 10.4654 10.9006 10.3059C10.9433 10.1464 11.0374 10.0055 11.1684 9.90499C11.2994 9.80449 11.4599 9.75001 11.625 9.75H12C12.1989 9.75 12.3896 9.82902 12.5303 9.96967C12.671 10.1103 12.75 10.3011 12.75 10.5V15.75C12.75 15.9489 12.671 16.1397 12.5303 16.2803C12.3896 16.421 12.1989 16.5 12 16.5Z" fill="#FF8800"/>
<path d="M12 8.625C12.6213 8.625 13.125 8.12132 13.125 7.5C13.125 6.87868 12.6213 6.375 12 6.375C11.3787 6.375 10.875 6.87868 10.875 7.5C10.875 8.12132 11.3787 8.625 12 8.625Z" fill="#FF8800"/>
</svg>
