<svg width="20" height="20" viewBox="0 0 20 20" fill="none" xmlns="http://www.w3.org/2000/svg">
<path d="M15.5 8C16.3276 8 17 8.67265 17 9.49937C17 10.3261 16.3276 11 15.5 11C14.6724 11 14 10.3261 14 9.49937C14 8.67265 14.6724 8 15.5 8Z" fill="white"/>
<path d="M10.1699 8C10.9976 8 11.6699 8.67265 11.6699 9.49937C11.6699 10.3261 10.9976 11 10.1699 11C9.34229 11 8.66992 10.3261 8.66992 9.49937C8.66992 8.67265 9.34229 8 10.1699 8Z" fill="white"/>
<path d="M4.83984 8C5.66747 8 6.33984 8.67265 6.33984 9.49937C6.33984 10.3261 5.66747 11 4.83984 11C4.01221 11 3.33984 10.3261 3.33984 9.49937C3.33984 8.67265 4.01221 8 4.83984 8Z" fill="white"/>
</svg>
