<svg width="50" height="50" viewBox="0 0 50 50" fill="none" xmlns="http://www.w3.org/2000/svg">
<path d="M21.4188 17.8712V1.05719L4.60474 17.8712H21.4188ZM46.4078 11.1599L7.56772 50H42.838C44.8014 50 46.4078 48.3936 46.4078 46.4301V11.1599Z" fill="#E60023" fill-opacity="0.5"/>
<path d="M1.78455 50C2.01898 50.0002 2.25114 49.9542 2.4677 49.8644C2.68427 49.7747 2.88096 49.643 3.0465 49.477L49.4547 3.06881C49.6252 2.90416 49.7612 2.7072 49.8547 2.48943C49.9482 2.27166 49.9975 2.03744 49.9995 1.80044C50.0016 1.56344 49.9564 1.3284 49.8667 1.10904C49.777 0.889677 49.6444 0.690386 49.4768 0.522794C49.3092 0.355202 49.1099 0.222666 48.8906 0.132918C48.6712 0.0431698 48.4362 -0.00199209 48.1992 6.73931e-05C47.9622 0.00212688 47.728 0.0513665 47.5102 0.144913C47.2924 0.238459 47.0955 0.374439 46.9308 0.544918L45.8242 1.65158C45.5013 1.15293 45.0591 0.742739 44.5377 0.458172C44.0162 0.173606 43.432 0.0236633 42.838 0.0219336H24.9887V17.8712C24.9887 19.8347 23.3822 21.4411 21.4188 21.4411H3.56948V43.9062L0.522604 46.9531C0.273054 47.2027 0.103117 47.5208 0.0342769 47.867C-0.0345635 48.2131 0.000783497 48.572 0.135849 48.8981C0.270915 49.2242 0.499635 49.5029 0.793095 49.6991C1.08656 49.8952 1.43158 49.9999 1.78455 50Z" fill="#E60023" fill-opacity="0.5"/>
</svg>
