<svg width="8" height="20" viewBox="0 0 8 20" fill="none" xmlns="http://www.w3.org/2000/svg">
<path d="M6.625 17.5833H1.95833C1.47508 17.5833 1.08333 17.9751 1.08333 18.4583C1.08333 18.9416 1.47508 19.3333 1.95833 19.3333H6.625C7.10825 19.3333 7.5 18.9416 7.5 18.4583C7.5 17.9751 7.10825 17.5833 6.625 17.5833Z" fill="white"/>
<path d="M1.95833 11.1666H6.625C7.10825 11.1666 7.5 10.7749 7.5 10.2916C7.5 9.8084 7.10825 9.41665 6.625 9.41665H1.95833C1.47508 9.41665 1.08333 9.8084 1.08333 10.2916C1.08333 10.7749 1.47508 11.1666 1.95833 11.1666Z" fill="white"/>
<path d="M1.95833 2.99998H6.625C7.10825 2.99998 7.5 2.60823 7.5 2.12498C7.5 1.64173 7.10825 1.24998 6.625 1.24998H1.95833C1.47508 1.24998 1.08333 1.64173 1.08333 2.12498C1.08333 2.60823 1.47508 2.99998 1.95833 2.99998Z" fill="white"/>
<path d="M6.625 17.5833H1.95833C1.47508 17.5833 1.08333 17.9751 1.08333 18.4583C1.08333 18.9416 1.47508 19.3333 1.95833 19.3333H6.625C7.10825 19.3333 7.5 18.9416 7.5 18.4583C7.5 17.9751 7.10825 17.5833 6.625 17.5833Z" stroke="white"/>
<path d="M1.95833 11.1666H6.625C7.10825 11.1666 7.5 10.7749 7.5 10.2916C7.5 9.8084 7.10825 9.41665 6.625 9.41665H1.95833C1.47508 9.41665 1.08333 9.8084 1.08333 10.2916C1.08333 10.7749 1.47508 11.1666 1.95833 11.1666Z" stroke="white"/>
<path d="M1.95833 2.99998H6.625C7.10825 2.99998 7.5 2.60823 7.5 2.12498C7.5 1.64173 7.10825 1.24998 6.625 1.24998H1.95833C1.47508 1.24998 1.08333 1.64173 1.08333 2.12498C1.08333 2.60823 1.47508 2.99998 1.95833 2.99998Z" stroke="white"/>
</svg>
