<svg width="15" height="18" viewBox="0 0 15 18" fill="none" xmlns="http://www.w3.org/2000/svg">
<path fill-rule="evenodd" clip-rule="evenodd" d="M0 4.96062V15.9226C0 16.4737 0.22564 17.0019 0.627649 17.391C0.826427 17.584 1.06251 17.7371 1.32239 17.8415C1.58227 17.9459 1.86084 17.9996 2.14215 17.9995H9.99669C10.1861 17.9995 10.3677 17.9266 10.5016 17.7967C10.6355 17.6669 10.7107 17.4908 10.7107 17.3072C10.7107 17.1236 10.6355 16.9475 10.5016 16.8177C10.3677 16.6878 10.1861 16.6149 9.99669 16.6149H2.14215C2.0483 16.6152 1.95532 16.5975 1.86856 16.5628C1.7818 16.5281 1.70297 16.4771 1.63661 16.4127C1.57025 16.3484 1.51766 16.272 1.48188 16.1878C1.44609 16.1037 1.42782 16.0136 1.4281 15.9226V4.96062C1.4281 4.77701 1.35287 4.60091 1.21896 4.47108C1.08505 4.34125 0.903427 4.26831 0.714049 4.26831C0.524672 4.26831 0.343051 4.34125 0.20914 4.47108C0.0752301 4.60091 0 4.77701 0 4.96062Z" fill="white"/>
<path fill-rule="evenodd" clip-rule="evenodd" d="M15.0003 4.72845C15.0003 4.17668 14.7739 3.64776 14.3719 3.25799L11.6335 0.607153C11.2319 0.218176 10.6874 -0.000217945 10.1198 1.6321e-07H4.99859C4.43021 1.6321e-07 3.88539 0.218769 3.48409 0.608537C3.28504 0.801261 3.12714 1.03016 3.01944 1.28212C2.91174 1.53409 2.85635 1.80417 2.85645 2.07692V13.1538C2.85645 13.7049 3.08208 14.2331 3.48409 14.6222C3.68287 14.8152 3.91896 14.9683 4.17884 15.0727C4.43871 15.1771 4.71728 15.2308 4.99859 15.2307H12.8538C13.4219 15.2307 13.9666 15.012 14.3683 14.6227C14.77 14.2333 14.9958 13.7052 14.996 13.1545L15.0003 4.72845ZM13.5722 4.72776L13.5679 13.1538C13.5679 13.3374 13.4927 13.5135 13.3588 13.6434C13.2248 13.7732 13.0432 13.8461 12.8538 13.8461H4.99859C4.90474 13.8464 4.81176 13.8287 4.725 13.794C4.63824 13.7593 4.55942 13.7083 4.49305 13.644C4.42669 13.5796 4.37411 13.5032 4.33832 13.4191C4.30254 13.335 4.28426 13.2448 4.28454 13.1538V2.07692C4.28426 1.98593 4.30254 1.89578 4.33832 1.81166C4.37411 1.72754 4.42669 1.65111 4.49305 1.58677C4.55942 1.52243 4.63824 1.47145 4.725 1.43675C4.81176 1.40206 4.90474 1.38434 4.99859 1.38461H10.1198C10.309 1.38461 10.4903 1.4573 10.6246 1.58677L13.3623 4.23761C13.4965 4.36776 13.5722 4.5443 13.5722 4.72776Z" fill="white"/>
</svg>
