<svg width="20" height="20" viewBox="0 0 20 20" fill="none" xmlns="http://www.w3.org/2000/svg">
<path fill-rule="evenodd" clip-rule="evenodd" d="M13.2592 1.37801L18.5676 6.68635C19.5376 7.66049 19.5376 9.23553 18.5676 10.2097L15.3126 13.4647C15.1276 13.6555 14.9705 13.8716 14.8459 14.1063L13.0492 17.7113C12.6877 18.427 12.0059 18.9266 11.2146 19.0558C10.4233 19.185 9.61795 18.9281 9.04758 18.3647L5.93258 15.2497L2.16425 19.018C2.00105 19.1833 1.77816 19.2758 1.54591 19.2747C1.31287 19.2799 1.08839 19.1868 0.92758 19.018C0.760807 18.8555 0.666748 18.6325 0.666748 18.3997C0.666748 18.1668 0.760807 17.9439 0.92758 17.7814L4.69591 14.013L1.58091 10.898C1.01241 10.3299 0.752149 9.52288 0.881651 8.72968C1.01115 7.93649 1.51458 7.25413 2.23425 6.89635L5.83925 5.09968C6.07404 4.9751 6.29006 4.818 6.48091 4.63301L9.75925 1.37801C10.7332 0.429578 12.2853 0.429578 13.2592 1.37801ZM13.9942 12.1347L17.2376 8.89135C17.4907 8.65553 17.5063 8.25971 17.2726 8.00468L11.9759 2.70801C11.8595 2.58827 11.6996 2.52071 11.5326 2.52071C11.3656 2.52071 11.2057 2.58827 11.0892 2.70801L7.84591 5.95135C7.50506 6.28645 7.11077 6.56245 6.67924 6.76801L3.07424 8.57635C2.89181 8.66107 2.76453 8.83224 2.73591 9.03135C2.69804 9.22843 2.76415 9.43114 2.91091 9.56801L10.3776 17.0347C10.488 17.156 10.6452 17.2239 10.8092 17.2213C11.0486 17.2254 11.268 17.0883 11.3692 16.8713L13.1776 13.3013C13.3831 12.8698 13.6591 12.4755 13.9942 12.1347Z" fill="white" stroke="white"/>
</svg>
