<svg width="25" height="22" viewBox="0 0 25 22" fill="none" xmlns="http://www.w3.org/2000/svg">
<path fill-rule="evenodd" clip-rule="evenodd" d="M17.7963 9.03572C17.9096 9.07863 18.0367 9.08442 18.1545 9.05205L23.8568 7.48327C23.8568 7.48327 24.1131 7.337 24.2655 7.4704C24.4179 7.6038 24.3763 7.78517 24.3763 7.78517L21.7608 18.059H3.32779L0.0359383 7.76456C0.0359383 7.76456 -0.0449229 7.56087 0.0359383 7.4704C0.142811 7.35082 0.479614 7.48782 0.479614 7.48782L5.8631 9.0496C5.97942 9.08336 6.10569 9.07965 6.21916 9.03914C6.33264 8.99863 6.42586 8.92398 6.48204 8.82864L11.4584 0.375766C11.4584 0.375766 11.5896 0 12.1992 0C12.6563 0 12.8044 0.375766 12.8044 0.375766L17.5374 8.81833C17.5911 8.91565 17.683 8.99281 17.7963 9.03572ZM4.45587 18.9424C3.86647 18.9424 3.38867 19.4202 3.38867 20.0096C3.38867 20.599 3.86647 21.0768 4.45587 21.0768H20.6079C21.1973 21.0768 21.6751 20.599 21.6751 20.0096C21.6751 19.4202 21.1973 18.9424 20.608 18.9424H4.45587Z" fill="#FF9900"/>
</svg>
