<svg width="24" height="24" viewBox="0 0 24 24" fill="none" xmlns="http://www.w3.org/2000/svg">
<path d="M1 11.977C1 9.24262 1 6.51475 1 3.78033C1 2.12131 2.1142 1.00656 3.76585 1.00656C6.36786 1.00656 8.96331 1.01311 11.5653 1C12.4042 1 13.1055 1.28853 13.6889 1.8918C15.1046 3.3541 16.5268 4.80983 17.9556 6.25902C18.5258 6.83606 18.8077 7.51803 18.8011 8.33115C18.7946 9.41312 18.8011 10.4885 18.7946 11.5705C18.7946 11.741 18.847 11.8262 18.9977 11.9115C20.0071 12.4426 21.0623 12.8557 22.1503 13.1705C22.7008 13.3344 22.963 13.7016 22.9761 14.2721C23.0023 15.4328 22.9302 16.5738 22.537 17.682C21.9733 19.2557 21.023 20.5344 19.6663 21.4984C19.0633 21.9246 18.4472 22.3246 17.8311 22.7246C17.6935 22.8164 17.5231 22.8885 17.3592 22.9016C16.7759 22.9475 16.1926 22.9934 15.6027 22.9934C11.6374 23 7.67214 23 3.70687 23C2.40259 23 1.35392 22.2 1.07209 20.9803C1.01311 20.7377 1 20.4754 1 20.2262C1 17.4721 1 14.7246 1 11.977ZM17.7262 11.1574C17.7262 10.0754 17.7262 9.03279 17.7262 7.99016C17.7262 7.8 17.5951 7.81967 17.4706 7.81967C16.5399 7.81967 15.6092 7.82623 14.672 7.81967C13.1055 7.8 11.9913 6.67213 11.9848 5.11147C11.9848 4.45574 11.9848 3.8 11.9848 3.15082C11.9848 2.80328 11.9848 2.44918 11.9848 2.08197C11.8209 2.07541 11.6702 2.05574 11.526 2.05574C8.9502 2.05574 6.37441 2.05574 3.79863 2.05574C2.67131 2.05574 2.03556 2.6918 2.03556 3.81967C2.03556 9.28197 2.03556 14.7443 2.03556 20.2131C2.03556 21.3213 2.67787 21.9639 3.78552 21.9639C7.56072 21.9639 11.3359 21.9639 15.1177 21.9639C15.1963 21.9639 15.275 21.9639 15.3536 21.9639C15.2553 21.8328 15.1373 21.7541 15.0194 21.6754C13.6364 20.7574 12.6336 19.5311 12.011 17.9902C11.5522 16.8557 11.4277 15.6689 11.4539 14.4557C11.467 13.6492 11.6833 13.3541 12.4436 13.1311C13.8134 12.7311 15.1177 12.1672 16.3236 11.4C16.7628 11.1246 17.1888 10.8885 17.7262 11.1574ZM21.934 15.0721C21.934 14.8623 21.9209 14.6459 21.9406 14.4361C21.9537 14.259 21.8947 14.1738 21.7177 14.1279C20.184 13.6951 18.7487 13.0459 17.4051 12.1869C17.2609 12.0951 17.1691 12.1082 17.038 12.1934C15.8648 12.9475 14.613 13.5311 13.2891 13.9639C13.04 14.0426 12.6992 14.0557 12.5812 14.2328C12.4501 14.4164 12.5288 14.7508 12.5288 15.0197C12.5222 16.882 13.1645 18.482 14.4426 19.8328C15.2225 20.6525 16.2253 21.1836 17.1429 21.8066C17.1888 21.8393 17.3133 21.8131 17.3723 21.7738C17.8835 21.4393 18.4013 21.1049 18.8994 20.7574C20.8788 19.3869 21.8685 17.4721 21.934 15.0721ZM13.0466 2.75082C13.04 2.86229 13.0334 2.91475 13.0334 2.96721C13.0334 3.68852 13.0269 4.40984 13.0334 5.12459C13.04 6.09508 13.702 6.75082 14.672 6.75738C15.3602 6.76394 16.0484 6.75738 16.73 6.75738C16.789 6.75738 16.848 6.74426 16.9397 6.73115C15.6354 5.40656 14.3574 4.09508 13.0466 2.75082Z" fill="#E60023"/>
<path d="M8.84582 11.4805C10.1763 11.4805 11.5068 11.4805 12.8373 11.4805C12.9487 11.4805 13.0667 11.487 13.1781 11.5133C13.4075 11.5723 13.5517 11.769 13.5583 11.9985C13.5648 12.2346 13.4075 12.4444 13.1716 12.5034C13.0798 12.5296 12.9749 12.5362 12.8832 12.5362C10.196 12.5362 7.50877 12.5362 4.82156 12.5362C4.71014 12.5362 4.58561 12.5296 4.4873 12.4969C4.26446 12.4182 4.14648 12.2477 4.14648 12.0116C4.14648 11.7755 4.26446 11.6051 4.49385 11.5264C4.60528 11.487 4.73636 11.487 4.85433 11.487C6.18483 11.4805 7.51532 11.4805 8.84582 11.4805Z" fill="#E60023"/>
<path d="M8.33407 9.39293C7.17398 9.39293 6.0139 9.39293 4.85381 9.39293C4.74239 9.39293 4.62441 9.38637 4.51299 9.36014C4.29015 9.30113 4.1394 9.09785 4.1394 8.86834C4.1394 8.63883 4.2836 8.43555 4.50644 8.37654C4.5982 8.35031 4.69651 8.34375 4.79482 8.34375C7.14777 8.34375 9.50071 8.34375 11.8602 8.34375C12.2666 8.34375 12.5222 8.55359 12.5091 8.88146C12.5025 9.19621 12.2666 9.39949 11.8864 9.39949C11.0475 9.40605 10.202 9.39949 9.36308 9.39949C9.02226 9.39293 8.67489 9.39293 8.33407 9.39293Z" fill="#E60023"/>
<path d="M7.29214 14.619C8.09174 14.619 8.89135 14.619 9.69096 14.619C9.76961 14.619 9.85482 14.619 9.93347 14.6255C10.2218 14.6649 10.4185 14.8813 10.4119 15.1501C10.4119 15.4124 10.2218 15.6222 9.94657 15.6616C9.87448 15.6747 9.80238 15.6747 9.72373 15.6747C8.09174 15.6747 6.45976 15.6747 4.82777 15.6747C4.73601 15.6747 4.64425 15.6747 4.55905 15.655C4.30999 15.6026 4.13958 15.3993 4.13958 15.1567C4.13303 14.9009 4.30999 14.6911 4.57216 14.6386C4.65736 14.619 4.74912 14.619 4.84088 14.619C5.66015 14.619 6.47287 14.619 7.29214 14.619Z" fill="#E60023"/>
<path d="M7.30529 17.7605C8.14422 17.7605 8.98971 17.7605 9.82864 17.7605C10.0646 17.7605 10.2612 17.8457 10.3661 18.0687C10.4578 18.2654 10.4447 18.4818 10.2874 18.6129C10.1564 18.7244 9.95973 18.7965 9.78932 18.8031C9.23222 18.8293 8.68166 18.8096 8.12456 18.8096C7.03002 18.8096 5.93547 18.8096 4.84093 18.8096C4.74261 18.8096 4.6443 18.8096 4.55254 18.7834C4.30348 18.7244 4.13963 18.5211 4.14619 18.2719C4.15274 18.0359 4.30348 17.8326 4.54599 17.7801C4.63775 17.7605 4.74261 17.7539 4.83437 17.7539C5.65364 17.7605 6.47947 17.7605 7.30529 17.7605Z" fill="#E60023"/>
<path d="M6.76109 6.25105C6.09256 6.25105 5.42403 6.25105 4.74896 6.25105C4.54578 6.25105 4.36226 6.20515 4.23118 6.02154C4.02145 5.7199 4.16564 5.31334 4.52612 5.22154C4.61787 5.19531 4.72274 5.19531 4.8145 5.19531C6.10567 5.19531 7.39684 5.19531 8.68801 5.19531C8.747 5.19531 8.80598 5.19531 8.85842 5.20187C9.15991 5.23466 9.36964 5.45761 9.36309 5.73302C9.35654 6.00187 9.15336 6.22482 8.86497 6.24449C8.60281 6.26417 8.34064 6.25105 8.07847 6.25105C7.6459 6.25105 7.20677 6.25105 6.76109 6.25105Z" fill="#E60023"/>
<path d="M16.6908 17.0373C17.2675 16.4602 17.7984 15.9028 18.3555 15.3717C18.4801 15.2536 18.6898 15.1487 18.8405 15.1684C18.9913 15.1881 19.1682 15.3454 19.2535 15.4897C19.3714 15.6799 19.2993 15.8897 19.142 16.0471C18.9126 16.2832 18.6832 16.5127 18.4473 16.7422C18.0082 17.1815 17.569 17.6209 17.1299 18.0602C16.8284 18.3618 16.5597 18.3618 16.2582 18.0668C15.9436 17.7586 15.629 17.4438 15.321 17.1291C15.0719 16.8733 15.0588 16.5651 15.2816 16.3487C15.4979 16.1323 15.8125 16.152 16.0616 16.4012C16.2779 16.6045 16.4745 16.8143 16.6908 17.0373Z" fill="#E60023"/>
</svg>
