<svg width="24" height="24" viewBox="0 0 24 24" fill="none" xmlns="http://www.w3.org/2000/svg">
<path d="M6.56883 19.9137C5.81393 19.9137 5.04423 19.9211 4.27453 19.9063C3.99329 19.8989 3.71205 19.8841 3.44561 19.8175C1.99502 19.4695 1.01809 18.2255 1.00329 16.7075C0.995888 15.5154 1.00329 14.3233 1.00329 13.1311C1.00329 11.391 1.00329 9.65835 1.00329 7.91827C1.01069 6.00047 2.38727 4.62322 4.30412 4.61581C6.99068 4.61581 9.67724 4.61581 12.3564 4.61581C12.9189 4.61581 13.2667 5.01566 13.1113 5.48956C13.0225 5.77093 12.7783 5.95605 12.46 5.96345C12.0456 5.97086 11.6385 5.96345 11.224 5.96345C8.92974 5.96345 6.63544 5.96345 4.33373 5.96345C3.11257 5.96345 2.34286 6.73353 2.34286 7.9627C2.34286 10.8283 2.34286 13.6939 2.34286 16.5594C2.34286 17.7886 3.11257 18.5513 4.34113 18.5587C5.28105 18.5587 6.22098 18.5587 7.16831 18.5587C7.75299 18.5587 7.99722 18.8104 7.98242 19.3806C7.96761 20.01 7.93801 20.6394 7.9306 21.2688C7.9306 21.3872 7.96762 21.5576 8.04903 21.602C8.12304 21.6464 8.30066 21.5798 8.38947 21.5131C9.61063 20.6098 10.8244 19.699 12.0307 18.7808C12.2454 18.6179 12.4748 18.5439 12.7412 18.5513C14.14 18.5587 15.5462 18.5587 16.945 18.5513C17.8923 18.5513 18.6102 18.0404 18.8397 17.1962C18.8915 16.9963 18.9137 16.7816 18.9137 16.5743C18.9211 14.8194 18.9137 13.0719 18.9211 11.317C18.9211 10.8949 19.2023 10.5987 19.5797 10.5913C19.9572 10.5839 20.2458 10.8801 20.2606 11.3022C20.2606 11.3688 20.2606 11.4429 20.2606 11.5095C20.2606 13.1607 20.2606 14.812 20.2606 16.4632C20.2606 16.6779 20.2532 16.9001 20.2236 17.1148C20.0682 18.5957 18.7656 19.8397 17.278 19.8767C15.8719 19.9137 14.4583 19.8841 13.0521 19.8989C12.9041 19.8989 12.7264 19.9582 12.608 20.047C11.4387 20.9133 10.2841 21.7945 9.11476 22.6608C8.35986 23.2236 7.36813 23.0681 6.85006 22.3202C6.65024 22.0389 6.56883 21.7205 6.57623 21.3724C6.56883 20.9134 6.56883 20.4321 6.56883 19.9137Z" fill="#F93D97"/>
<path d="M15.591 8.44441C15.628 7.90387 15.6724 7.37815 15.7021 6.84501C15.7095 6.72654 15.665 6.58585 15.591 6.48959C15.2802 6.08975 14.9398 5.71211 14.6215 5.31967C14.0294 4.60142 14.3329 3.66844 15.2284 3.4389C15.7169 3.31302 16.2127 3.20195 16.6938 3.06126C16.8048 3.03164 16.9232 2.94279 16.9898 2.83912C17.2637 2.42447 17.5227 1.995 17.7891 1.57293C18.2702 0.810259 19.2989 0.810261 19.7874 1.56553C20.0538 1.98019 20.3129 2.39485 20.5645 2.81691C20.6533 2.965 20.7643 3.03164 20.9272 3.06867C21.3934 3.17973 21.8671 3.29821 22.3259 3.41668C23.2511 3.66103 23.5545 4.57921 22.9476 5.31967C22.6368 5.6973 22.3111 6.06753 22.0077 6.45257C21.9337 6.54883 21.8819 6.69692 21.8819 6.8228C21.9041 7.34853 21.9559 7.88166 21.9781 8.40739C22.0003 9.02197 21.608 9.50327 21.0012 9.57732C20.7939 9.59953 20.5645 9.5551 20.3647 9.48106C19.891 9.31075 19.4321 9.10342 18.9585 8.92571C18.8549 8.88869 18.7143 8.88869 18.6106 8.92571C18.1074 9.11083 17.6189 9.33296 17.1156 9.51808C16.3459 9.82167 15.5688 9.25892 15.591 8.44441ZM20.6163 8.15563C20.5793 7.6225 20.5571 7.12639 20.5053 6.63769C20.4757 6.34891 20.5423 6.10455 20.7347 5.88241C21.0752 5.49738 21.3934 5.09753 21.7487 4.67547C21.3342 4.5718 20.9493 4.44592 20.5497 4.38668C20.0316 4.30523 19.6764 4.05348 19.4395 3.57958C19.2619 3.22416 19.0177 2.89836 18.7883 2.53553C18.507 2.98721 18.2332 3.40187 17.9816 3.83134C17.8261 4.0905 17.6263 4.246 17.3303 4.31264C16.8418 4.42371 16.3533 4.55699 15.8353 4.68287C16.1461 5.0531 16.4125 5.41593 16.7234 5.73432C17.0268 6.05272 17.1156 6.39333 17.0564 6.8228C16.9972 7.25227 16.9898 7.68914 16.9602 8.15563C17.4043 7.97792 17.8261 7.83723 18.2184 7.64471C18.618 7.44479 18.9807 7.467 19.3729 7.65212C19.7726 7.83723 20.1796 7.97792 20.6163 8.15563Z" fill="#F93D97"/>
<path d="M10.7728 9.90213C11.9866 9.90213 13.2003 9.90213 14.4141 9.90213C14.7841 9.90213 15.0506 10.1095 15.1172 10.4279C15.206 10.8499 14.9174 11.2201 14.4733 11.2498C14.2809 11.2646 14.081 11.2498 13.8886 11.2498C11.6535 11.2498 9.41842 11.2498 7.19073 11.2498C6.80588 11.2498 6.54684 11.0943 6.44323 10.8055C6.28041 10.3612 6.59125 9.90953 7.08712 9.90213C7.84202 9.89472 8.59692 9.90213 9.35182 9.90213C9.82548 9.90213 10.2991 9.90213 10.7728 9.90213Z" fill="#F93D97"/>
<path d="M9.01839 13.3093C9.68447 13.3093 10.358 13.3019 11.024 13.3093C11.3349 13.3167 11.5643 13.5241 11.6457 13.8203C11.7123 14.0942 11.5939 14.4052 11.3423 14.5385C11.2239 14.6052 11.0759 14.6422 10.9426 14.6422C9.66967 14.6496 8.3967 14.6496 7.11633 14.6422C6.69447 14.6422 6.39844 14.3534 6.39844 13.9758C6.39844 13.5907 6.69448 13.3093 7.13114 13.3019C7.76022 13.3019 8.3893 13.3019 9.01839 13.3093Z" fill="#F93D97"/>
</svg>
