<svg width="24" height="24" viewBox="0 0 24 24" fill="none" xmlns="http://www.w3.org/2000/svg">
<path d="M2.5704 3.58793C2.5704 3.70604 2.5704 3.80446 2.5704 3.89633C2.5704 6.36351 2.5704 8.82414 2.5704 11.2913C2.5704 11.4094 2.56383 11.5407 2.53104 11.6522C2.4261 12.0197 2.07851 12.2493 1.71123 12.21C1.3374 12.1706 1.02915 11.8622 1.00291 11.4816C0.996356 11.416 1.00291 11.3504 1.00291 11.2848C1.00291 8.50262 1.00291 5.72047 1.00291 2.93832C1.00291 2.28871 1.2915 2 1.94734 2C8.65009 2 15.3528 2 22.0556 2C22.7114 2 23 2.28871 23 2.93832C23 4.1916 23 5.44488 23 6.69816C23 7.07873 22.7836 7.36745 22.436 7.47244C22.1146 7.57086 21.7539 7.45931 21.5768 7.15747C21.4915 7.01312 21.4391 6.82283 21.4391 6.65223C21.426 5.72703 21.4325 4.80183 21.4325 3.87664C21.4325 3.78477 21.4325 3.69947 21.4325 3.59449C15.143 3.58792 8.87308 3.58793 2.5704 3.58793Z" fill="#7018FF"/>
<path d="M20.0486 12.2147C19.9502 12.1097 19.8912 12.0441 19.8256 11.985C18.7894 10.9483 17.7531 9.91156 16.7169 8.87481C16.4874 8.64515 16.4021 8.37613 16.4874 8.06773C16.5661 7.77901 16.7694 7.58873 17.0645 7.52311C17.3793 7.45093 17.6351 7.56904 17.8581 7.79214C18.7041 8.63859 19.5502 9.48505 20.3896 10.3249C21.0848 11.0205 21.78 11.7095 22.4752 12.405C22.8425 12.7724 22.8425 13.2318 22.4752 13.5992C20.9537 15.1215 19.4255 16.6438 17.904 18.1596C17.8318 18.2318 17.7531 18.3105 17.6613 18.3696C17.34 18.5861 16.9202 18.5336 16.6579 18.2449C16.3955 17.9627 16.3824 17.5362 16.6185 17.2344C16.671 17.1622 16.7431 17.1032 16.8022 17.0375C17.8056 16.027 18.8156 15.0231 19.8256 14.0126C19.8846 13.9535 19.9437 13.8879 20.042 13.7829C19.9043 13.7829 19.8191 13.7829 19.7338 13.7829C17.4318 13.7829 15.1363 13.7829 12.8343 13.7829C12.2112 13.7829 11.8177 13.2121 12.0735 12.674C12.2309 12.3394 12.5129 12.2081 12.8736 12.2081C14.1985 12.2081 15.5233 12.2081 16.8546 12.2081C17.8974 12.2147 18.9402 12.2147 20.0486 12.2147Z" fill="#7018FF"/>
<path d="M3.96068 16.4104C4.12464 16.4104 4.22302 16.4104 4.32139 16.4104C6.53815 16.4104 8.75491 16.4104 10.9782 16.4104C11.0897 16.4104 11.2078 16.4104 11.3193 16.4235C11.739 16.4826 12.0276 16.8369 12.0013 17.2438C11.9751 17.644 11.6603 17.959 11.2471 17.9721C11.0176 17.9852 10.788 17.9787 10.5585 17.9787C8.47289 17.9787 6.3873 17.9787 4.29515 17.9787C4.20333 17.9787 4.10497 17.9787 4.01315 17.9787C3.99347 18.0115 3.96724 18.0443 3.94757 18.0836C4.02627 18.1296 4.11809 18.1624 4.17711 18.2214C5.20679 19.2451 6.22335 20.2687 7.25302 21.2923C7.49569 21.5351 7.59406 21.8107 7.5088 22.1388C7.36451 22.6637 6.70868 22.8671 6.27582 22.5325C6.21679 22.4865 6.16433 22.434 6.11186 22.3815C4.57718 20.8527 3.04248 19.3172 1.50781 17.7884C1.15365 17.434 1.15365 16.9682 1.50781 16.6138C3.04248 15.0784 4.57718 13.5495 6.11186 12.0141C6.30861 11.8172 6.51848 11.6795 6.8005 11.6991C7.10874 11.7188 7.34484 11.8763 7.46946 12.165C7.58751 12.4472 7.55471 12.7293 7.36451 12.9721C7.31205 13.0443 7.24646 13.1033 7.18087 13.169C6.17743 14.1729 5.18056 15.1703 4.17711 16.1742C4.11809 16.2333 4.06561 16.2989 3.96068 16.4104Z" fill="#7018FF"/>
</svg>
