<svg width="24" height="24" viewBox="0 0 24 24" fill="none" xmlns="http://www.w3.org/2000/svg">
<path d="M4.17189 22.0003C4.1501 21.9872 4.12396 21.9698 4.10217 21.9611C3.62727 21.7911 3.37021 21.4511 3.37021 20.9411C3.36585 18.5567 3.36585 16.1723 3.37021 13.7878C3.37021 13.1383 3.80155 12.7242 4.45944 12.7242C5.57482 12.7242 6.69019 12.7286 7.80992 12.7199C8.21076 12.7155 8.53753 12.8419 8.80766 13.2081C9.117 12.916 9.43941 12.6458 9.72261 12.3406C10.9382 11.0373 11.6702 9.49853 11.9098 7.72439C12.0056 6.99207 12.5851 6.66514 13.2517 6.97899C14.158 7.40182 14.6024 8.1603 14.7374 9.11929C14.8986 10.2744 14.6459 11.3816 14.3366 12.4801C14.28 12.6763 14.219 12.8768 14.1493 13.1035C14.2495 13.1035 14.3235 13.1035 14.3976 13.1035C15.9138 13.1035 17.43 13.0991 18.9506 13.1078C19.7087 13.1122 20.2969 13.6048 20.4319 14.3414C20.5104 14.7556 20.4102 15.1348 20.1662 15.4792C20.127 15.5358 20.0834 15.5925 20.0398 15.6492C20.4886 16.3423 20.4319 17.0964 19.8263 17.711C20.2272 18.4651 20.1095 19.1364 19.4778 19.7293C19.6346 20.0387 19.7218 20.3657 19.6651 20.7144C19.5606 21.3421 19.1249 21.8085 18.5105 21.9567C18.4713 21.9655 18.4321 21.9829 18.3929 22.0003C15.6742 22.0003 12.9555 22.0003 10.2367 22.0003C9.78361 21.8042 9.33049 21.608 8.87301 21.4119C8.65081 21.7649 8.60288 21.8085 8.13233 22.0003C6.80347 22.0003 5.48768 22.0003 4.17189 22.0003ZM12.9293 7.9685C12.9075 8.02952 12.8988 8.05568 12.8945 8.08619C12.4631 10.658 11.1909 12.7155 9.09086 14.2499C8.97758 14.3327 8.93837 14.4156 8.94272 14.5507C8.94708 16.2028 8.95144 17.8592 8.93837 19.5113C8.93837 19.7816 9.00372 19.9952 9.18236 20.1913C9.55269 20.5967 9.97531 20.9542 10.5417 20.9585C13.0513 20.9759 15.5653 20.9672 18.0748 20.9672C18.4234 20.9672 18.6456 20.7754 18.6369 20.4877C18.6325 20.2044 18.419 20.03 18.0792 20.0257C17.6217 20.0257 17.1642 20.03 16.7068 20.0213C16.4192 20.017 16.2014 19.7903 16.197 19.5157C16.1927 19.2498 16.3974 19.0274 16.6719 18.9969C16.7416 18.9882 16.8157 18.9926 16.8854 18.9926C17.4344 18.9926 17.9877 18.9969 18.5367 18.9882C18.8112 18.9839 19.0072 18.7877 19.0116 18.5349C19.0159 18.2951 18.833 18.0946 18.5759 18.0597C18.5062 18.051 18.4321 18.0554 18.3624 18.0554C17.6914 18.0554 17.0161 18.0597 16.3451 18.051C16.0794 18.0467 15.8833 17.8723 15.8441 17.6369C15.8049 17.3928 15.9182 17.1574 16.1404 17.0746C16.2449 17.0354 16.3626 17.0223 16.4759 17.0223C17.247 17.0179 18.0226 17.0223 18.7937 17.0179C19.09 17.0179 19.2817 16.8348 19.2861 16.5646C19.2904 16.2856 19.0987 16.1025 18.7937 16.0938C18.6805 16.0894 18.5628 16.0938 18.4495 16.0938C17.6784 16.0938 16.9028 16.0938 16.1317 16.0938C16.0663 16.0938 16.0009 16.0982 15.94 16.0894C15.6263 16.0633 15.4171 15.854 15.4215 15.5707C15.4215 15.2786 15.6437 15.0651 15.9704 15.0651C16.8418 15.0607 17.7176 15.0651 18.589 15.0607C18.7197 15.0607 18.846 15.0651 18.9767 15.052C19.2425 15.0215 19.4168 14.8253 19.4124 14.5812C19.4081 14.3284 19.212 14.1366 18.9375 14.1235C18.8678 14.1191 18.7937 14.1235 18.724 14.1235C16.9856 14.1235 15.2472 14.1235 13.5088 14.1235C13.0164 14.1235 12.7986 13.8096 12.9511 13.3432C13.1297 12.8027 13.3171 12.2578 13.4652 11.7086C13.6874 10.8847 13.8399 10.0434 13.7005 9.18468C13.6177 8.6921 13.4216 8.25184 12.9293 7.9685ZM4.41587 13.7573C4.41587 16.1723 4.41587 18.5654 4.41587 20.9542C5.58789 20.9542 6.74248 20.9542 7.89706 20.9542C7.89706 18.5479 7.89706 16.1548 7.89706 13.7573C6.7294 13.7573 5.57917 13.7573 4.41587 13.7573Z" fill="#BD00FF"/>
<path d="M16.1622 2.70707C16.0794 2.8422 16.0184 2.99477 15.9095 3.10375C15.5348 3.46991 15.147 3.81863 14.7592 4.16736C14.6459 4.26762 14.6242 4.36351 14.6547 4.503C14.7636 5.02173 14.8638 5.54046 14.9727 6.05483C15.0206 6.2815 14.9553 6.46894 14.7767 6.60407C14.598 6.73484 14.4063 6.73921 14.2102 6.63023C13.7353 6.36433 13.2604 6.10278 12.7942 5.82816C12.681 5.76277 12.5938 5.75842 12.4805 5.8238C12.0361 6.08099 11.583 6.32945 11.1386 6.58664C10.9251 6.71305 10.7116 6.761 10.4981 6.60407C10.289 6.4515 10.2498 6.24227 10.3064 5.9938C10.4197 5.48379 10.5112 4.96942 10.6201 4.45941C10.6463 4.33736 10.6158 4.26325 10.5286 4.18043C10.1409 3.83171 9.76182 3.46991 9.37406 3.12118C9.18235 2.95118 9.09521 2.75502 9.17799 2.51091C9.25642 2.27117 9.45248 2.17962 9.69211 2.15347C10.2106 2.0968 10.7291 2.03141 11.2475 1.9791C11.3739 1.96603 11.4349 1.91808 11.4828 1.80474C11.6919 1.3296 11.9141 0.854468 12.1276 0.37933C12.2278 0.152659 12.3803 -0.00427048 12.6461 8.85849e-05C12.8988 0.00444765 13.0469 0.157019 13.1428 0.374972C13.3563 0.85011 13.5785 1.32089 13.7876 1.80038C13.8399 1.92244 13.9096 1.96603 14.0403 1.9791C14.5675 2.03141 15.0903 2.09244 15.6175 2.15783C15.9312 2.20578 16.1142 2.40194 16.1622 2.70707ZM10.838 3.07323C11.0907 3.30426 11.3042 3.50478 11.522 3.70094C11.6963 3.85786 11.7617 4.0453 11.705 4.28069C11.6397 4.56403 11.5917 4.85173 11.5264 5.18302C11.8096 5.02173 12.0579 4.89096 12.3019 4.74711C12.5285 4.61198 12.742 4.61198 12.9685 4.74711C13.2125 4.89096 13.4609 5.02609 13.7441 5.18302C13.6831 4.87352 13.6438 4.60326 13.5741 4.34608C13.4957 4.04966 13.5828 3.83607 13.8094 3.64427C14.0142 3.47427 14.2015 3.28246 14.4325 3.07323C14.1144 3.034 13.853 2.99041 13.5916 2.97733C13.2909 2.9599 13.0992 2.82476 12.9859 2.54578C12.8857 2.29732 12.7637 2.05757 12.633 1.76551C12.5023 2.05321 12.3803 2.29732 12.2801 2.54143C12.1668 2.81605 11.9751 2.95554 11.6789 2.97297C11.4131 2.99041 11.1517 3.034 10.838 3.07323Z" fill="#BD00FF"/>
<path d="M17.347 7.36331C17.4211 7.00151 17.4952 6.58304 17.591 6.17329C17.6302 6.012 17.5954 5.91174 17.469 5.80277C17.1858 5.55866 16.92 5.30147 16.6456 5.04865C16.4669 4.88736 16.3711 4.69992 16.4495 4.45581C16.5279 4.21171 16.7153 4.11581 16.9549 4.08965C17.3383 4.04606 17.7217 3.99375 18.1051 3.96324C18.2358 3.95016 18.3055 3.90657 18.3578 3.78452C18.5103 3.42271 18.6846 3.06963 18.8458 2.71219C18.9417 2.49859 19.0898 2.35911 19.3338 2.35911C19.5908 2.35475 19.739 2.49859 19.8392 2.7209C20.0004 3.07835 20.166 3.43579 20.3228 3.79323C20.3707 3.90221 20.4317 3.95016 20.5581 3.96324C20.9415 3.99375 21.3249 4.05042 21.7083 4.08965C21.9479 4.11581 22.144 4.20734 22.2224 4.44709C22.3052 4.6912 22.2137 4.89172 22.0264 5.05736C21.7388 5.31455 21.46 5.58045 21.168 5.83764C21.0766 5.9161 21.0461 5.9902 21.0766 6.11226C21.1637 6.50022 21.2334 6.89689 21.3162 7.28921C21.3685 7.5246 21.3118 7.71639 21.1158 7.86024C20.9284 7.99537 20.728 7.98666 20.5319 7.87332C20.1834 7.67716 19.8305 7.48536 19.4863 7.28048C19.373 7.2151 19.2859 7.2151 19.1726 7.28485C18.824 7.48972 18.4668 7.6946 18.1095 7.8864C17.7348 8.09127 17.3296 7.83845 17.347 7.36331ZM18.1313 5.00941C18.7064 5.3625 18.8284 5.82456 18.567 6.40867C18.8502 6.29534 19.0898 6.12097 19.3338 6.12097C19.5778 6.12097 19.8261 6.29098 20.0527 6.37816C20.0352 6.12969 19.9481 5.84635 20.0222 5.61968C20.1006 5.38865 20.3402 5.20993 20.545 4.97018C19.8697 5.06172 19.5037 4.75223 19.3425 4.12016C19.1769 4.74787 18.811 5.06608 18.1313 5.00941Z" fill="#BD00FF"/>
<path d="M4.49857 7.95606C4.10209 7.95606 3.86245 7.66836 3.92781 7.33271C4.00623 6.9186 4.09773 6.50885 4.1718 6.09038C4.18487 6.01628 4.14565 5.9073 4.09337 5.85935C3.80581 5.58037 3.50954 5.31011 3.21327 5.0442C3.03028 4.87856 2.95186 4.6824 3.03028 4.44701C3.10871 4.21598 3.2917 4.12008 3.52261 4.09393C3.91909 4.05034 4.31993 4.01111 4.71641 3.95444C4.79048 3.94572 4.88198 3.87597 4.91683 3.81059C5.09547 3.45314 5.25667 3.08698 5.41788 2.72082C5.51809 2.49851 5.67058 2.35902 5.92328 2.36338C6.16727 2.36774 6.31541 2.50287 6.41126 2.71646C6.56811 3.06955 6.73367 3.41827 6.89052 3.77136C6.9428 3.89341 7.0038 3.95879 7.15194 3.96751C7.53535 3.99367 7.91876 4.05034 8.30217 4.09393C8.53744 4.12008 8.72914 4.21598 8.80757 4.46009C8.88599 4.7042 8.79014 4.89164 8.61151 5.05292C8.32395 5.31446 8.04511 5.58037 7.75755 5.83319C7.65734 5.92038 7.6312 6.00756 7.6617 6.13397C7.74448 6.50449 7.81419 6.87501 7.89261 7.24553C7.9449 7.48528 7.92311 7.70759 7.70527 7.86016C7.49178 8.01273 7.27829 7.97349 7.0648 7.84708C6.73367 7.65092 6.39819 7.45912 6.05399 7.2804C5.98428 7.24117 5.85793 7.24117 5.78822 7.2804C5.43966 7.46348 5.10418 7.664 4.75998 7.85144C4.65542 7.90811 4.54649 7.93862 4.49857 7.95606ZM4.71641 5.01369C5.27846 5.36241 5.41352 5.82448 5.16953 6.43911C5.67929 6.0032 6.16291 6.02063 6.63782 6.44346C6.61603 6.13397 6.52454 5.85063 6.59861 5.6196C6.67703 5.38857 6.92102 5.20985 7.1258 4.96574C6.44611 5.066 6.08449 4.74343 5.90585 4.11136C5.77079 4.7783 5.36995 5.0442 4.71641 5.01369Z" fill="#BD00FF"/>
<path d="M5.36983 15.1258C5.30448 15.1258 5.24348 15.1302 5.17813 15.1258C4.89493 15.1084 4.69015 14.9079 4.68144 14.6376C4.67272 14.3542 4.86443 14.1276 5.15199 14.1014C5.30012 14.0883 5.45262 14.0883 5.60075 14.1014C5.88831 14.1232 6.08873 14.3543 6.07565 14.6332C6.06694 14.9035 5.86217 15.1084 5.58332 15.1258C5.51361 15.1302 5.43955 15.1258 5.36983 15.1258Z" fill="#BD00FF"/>
</svg>
