<svg width="15" height="16" viewBox="0 0 15 16" fill="none" xmlns="http://www.w3.org/2000/svg">
<path d="M12.6937 4.62053C12.6322 4.62053 12.58 4.6078 12.5369 4.58234C12.4938 4.55688 12.46 4.51233 12.4354 4.44869L11.9004 3.15036L10.5535 2.53938C10.492 2.51392 10.449 2.47892 10.4244 2.43437C10.3998 2.38982 10.3875 2.33572 10.3875 2.27208C10.3875 2.20843 10.3998 2.15434 10.4244 2.10979C10.449 2.06523 10.492 2.03023 10.5535 2.00477L11.9004 1.41289L12.4354 0.171838C12.46 0.108194 12.4938 0.0636436 12.5369 0.0381862C12.58 0.0127287 12.6322 0 12.6937 0C12.7552 0 12.8075 0.0127287 12.8506 0.0381862C12.8936 0.0636436 12.9274 0.108194 12.952 0.171838L13.4871 1.41289L14.8339 2.00477C14.8954 2.03023 14.9385 2.06523 14.9631 2.10979C14.9877 2.15434 15 2.20843 15 2.27208C15 2.33572 14.9877 2.38982 14.9631 2.43437C14.9385 2.47892 14.8954 2.51392 14.8339 2.53938L13.4871 3.15036L12.952 4.44869C12.9274 4.51233 12.8936 4.55688 12.8506 4.58234C12.8075 4.6078 12.7552 4.62053 12.6937 4.62053ZM12.6937 16C12.6445 16 12.5953 15.9873 12.5461 15.9618C12.4969 15.9364 12.46 15.8918 12.4354 15.8282L11.9004 14.5871L10.572 13.9952C10.5105 13.9698 10.4674 13.9348 10.4428 13.8902C10.4182 13.8457 10.4059 13.7916 10.4059 13.7279C10.4059 13.6643 10.4182 13.6102 10.4428 13.5656C10.4674 13.5211 10.5105 13.4861 10.572 13.4606L11.9004 12.8687L12.4354 11.5513C12.46 11.4877 12.4938 11.4431 12.5369 11.4177C12.58 11.3922 12.6322 11.3795 12.6937 11.3795C12.7552 11.3795 12.8075 11.3922 12.8506 11.4177C12.8936 11.4431 12.9274 11.4877 12.952 11.5513L13.4871 12.8687L14.8155 13.4606C14.877 13.4861 14.92 13.5211 14.9446 13.5656C14.9692 13.6102 14.9815 13.6643 14.9815 13.7279C14.9815 13.7916 14.9692 13.8457 14.9446 13.8902C14.92 13.9348 14.877 13.9698 14.8155 13.9952L13.4871 14.5871L12.952 15.8282C12.9274 15.8918 12.8905 15.9364 12.8413 15.9618C12.7921 15.9873 12.7429 16 12.6937 16ZM4.5941 12.6969C4.49569 12.6969 4.40037 12.6683 4.30812 12.611C4.21587 12.5537 4.14514 12.4741 4.09594 12.3723L2.89668 9.71838L0.313653 8.51551C0.215252 8.4646 0.138376 8.39141 0.0830258 8.29594C0.0276753 8.20048 0 8.10183 0 8C0 7.89817 0.0276753 7.79952 0.0830258 7.70406C0.138376 7.60859 0.215252 7.5354 0.313653 7.48449L2.89668 6.28162L4.09594 3.64678C4.14514 3.53222 4.21587 3.4463 4.30812 3.38902C4.40037 3.33174 4.49569 3.3031 4.5941 3.3031C4.6925 3.3031 4.78782 3.33174 4.88007 3.38902C4.97232 3.4463 5.04305 3.52586 5.09225 3.62769L6.30996 6.28162L8.87454 7.48449C8.98524 7.5354 9.06826 7.60859 9.12362 7.70406C9.17897 7.79952 9.20664 7.89817 9.20664 8C9.20664 8.10183 9.17897 8.20048 9.12362 8.29594C9.06826 8.39141 8.98524 8.4646 8.87454 8.51551L6.30996 9.71838L5.09225 12.3723C5.04305 12.4869 4.97232 12.5696 4.88007 12.6205C4.78782 12.6714 4.6925 12.6969 4.5941 12.6969Z" fill="#2388FF"/>
</svg>
