<svg width="89" height="92" viewBox="0 0 89 92" fill="none" xmlns="http://www.w3.org/2000/svg">
<path d="M58.4517 88.4323L68.8568 82.8698C69.4471 82.5543 69.8877 82.0172 70.082 81.3767C70.2762 80.7363 70.2081 80.0449 69.8926 79.4546L64.3301 69.0495C64.099 68.6172 63.7056 68.2944 63.2365 68.1521C62.7673 68.0098 62.2609 68.0597 61.8286 68.2908C61.3962 68.5219 61.0734 68.9153 60.9311 69.3844C60.7888 69.8536 60.8387 70.36 61.0698 70.7923L64.8377 77.8877C42.2546 70.7915 37.8851 57.6636 37.3036 50.4207C37.2617 49.8989 37.2374 49.3765 37.2306 48.8535C38.9181 49.9118 40.6767 50.8522 42.4938 51.668C48.5276 54.3646 53.9986 55.0355 57.8996 53.5552C63.8296 51.3054 67.4926 47.0326 68.2138 41.5269C68.5636 38.7094 68.1343 35.8498 66.9726 33.2591C65.8389 30.6536 64.0284 28.3989 61.7292 26.7292C57.2257 23.4932 51.4973 23.1751 46.0122 25.8574C40.7532 28.4286 36.7026 33.8101 34.7749 40.1669C34.5787 40.8135 34.4052 41.4694 34.2541 42.1346C32.4666 40.6337 30.8044 38.9895 29.2842 37.2184C24.0732 31.1321 16.6244 18.6513 25.2785 3.44175C25.5133 3.01694 25.5712 2.51669 25.4397 2.04944C25.3083 1.58219 24.9979 1.18559 24.576 0.945605C24.154 0.70562 23.6545 0.641589 23.1857 0.767387C22.7169 0.893188 22.3166 1.19869 22.0715 1.61766C20.7628 3.89454 19.7126 6.31048 18.9403 8.82054C17.5792 13.2388 17.2773 17.9154 18.059 22.472C19.0775 28.443 21.9896 34.3719 26.4807 39.6177C28.6182 42.1049 31.0102 44.3614 33.6177 46.3503C33.507 47.8037 33.5097 49.2635 33.6256 50.7165C34.1405 57.1247 36.8486 63.1908 41.4578 68.2587C46.6566 73.9753 54.1521 78.3981 63.7429 81.4126L56.7089 85.1728C56.4948 85.2872 56.3054 85.4427 56.1514 85.6304C55.9974 85.818 55.8819 86.0342 55.8115 86.2665C55.741 86.4987 55.717 86.7426 55.7408 86.9842C55.7646 87.2258 55.8358 87.4603 55.9503 87.6744C56.0647 87.8884 56.2202 88.0779 56.4078 88.2318C56.5955 88.3858 56.8116 88.5013 57.0439 88.5718C57.2762 88.6422 57.5201 88.6662 57.7617 88.6424C58.0033 88.6186 58.2378 88.5474 58.4519 88.433L58.4517 88.4323ZM43.9991 48.2995C41.7386 47.2812 39.5764 46.0573 37.5398 44.6434C38.6269 37.837 42.4687 31.6966 47.6331 29.1713C51.9206 27.0748 56.1616 27.2713 59.5763 29.7249C63.1093 32.2638 65.1102 36.8139 64.5557 41.0473C64.4827 41.6087 64.3636 42.1631 64.1997 42.705C63.1973 46.0102 60.5502 48.6031 56.5909 50.1052C53.6515 51.2208 49.062 50.5624 43.9994 48.2996L43.9991 48.2995Z" fill="#E60023"/>
</svg>
