<svg width="24" height="24" viewBox="0 0 24 24" fill="none" xmlns="http://www.w3.org/2000/svg">
<path d="M21.0234 11.0234C20.4844 11.0234 20.0469 11.4609 20.0469 12C20.0469 16.4375 16.4375 20.0469 12 20.0469C7.5625 20.0469 3.95312 16.4375 3.95312 12C3.95312 11.4609 3.51562 11.0234 2.97656 11.0234C2.4375 11.0234 2 11.4609 2 12C2 14.6719 3.03906 17.1836 4.92969 19.0703C6.82031 20.9609 9.32812 22 12 22C14.6719 22 17.1836 20.9609 19.0703 19.0703C20.9609 17.1797 22 14.6719 22 12C22 11.4609 21.5625 11.0234 21.0234 11.0234Z" fill="#5D53D6"/>
<path d="M10.6602 15.4219C11.0195 15.7812 11.4961 15.9766 12 15.9766C12.5078 15.9766 12.9844 15.7773 13.3398 15.4219L15.7969 12.9648C16.1797 12.582 16.1797 11.9648 15.7969 11.582C15.4141 11.1992 14.7969 11.1992 14.4141 11.582L12.9766 13.0234V2.97656C12.9766 2.4375 12.5391 2 12 2C11.4609 2 11.0234 2.4375 11.0234 2.97656V13.0234L9.58203 11.582C9.19922 11.1992 8.58203 11.1992 8.19922 11.582C7.81641 11.9648 7.81641 12.582 8.19922 12.9648L10.6602 15.4219Z" fill="#5D53D6"/>
</svg>
