<svg width="22" height="19" viewBox="0 0 22 19" fill="none" xmlns="http://www.w3.org/2000/svg">
<path d="M1.95825 18.1667C2.43887 18.1604 2.82696 17.7723 2.83325 17.2917V14.9584C2.82066 13.6395 3.33901 12.371 4.27162 11.4384C5.20423 10.5058 6.47273 9.98743 7.79158 10H18.5132L13.0066 15.5417C12.8072 15.8923 12.8734 16.3338 13.1668 16.6106C13.4602 16.8874 13.9048 16.9278 14.2432 16.7084L21.2432 9.70835C21.3223 9.62744 21.3856 9.53248 21.4299 9.42835C21.5234 9.21248 21.5234 8.96756 21.4299 8.75169C21.3856 8.64756 21.3223 8.5526 21.2432 8.47169L14.2432 1.47169C13.9016 1.13049 13.3482 1.13049 13.0066 1.47169C12.6654 1.81331 12.6654 2.36673 13.0066 2.70836L18.5132 8.25002H7.79158C6.00669 8.2311 4.28938 8.93179 3.0272 10.194C1.76502 11.4562 1.06432 13.1735 1.08325 14.9584V17.2917C1.08953 17.7723 1.47762 18.1604 1.95825 18.1667Z" fill="white" stroke="white"/>
</svg>
