<svg width="20" height="20" viewBox="0 0 20 20" fill="none" xmlns="http://www.w3.org/2000/svg">
<path d="M7.69 6.97747L9.3 5.36546V12.0939C9.3 12.5144 9.58 12.7947 10 12.7947C10.42 12.7947 10.7 12.5144 10.7 12.0939V5.36546L12.31 6.97747C12.59 7.25782 13.01 7.25782 13.29 6.97747C13.57 6.69712 13.57 6.2766 13.29 5.99625L10.49 3.19274C10.42 3.12265 10.35 3.05257 10.28 3.05257C10.14 2.98248 9.93 2.98248 9.72 3.05257C9.65 3.05257 9.58 3.12265 9.51 3.19274L6.71 5.99625C6.43 6.2766 6.43 6.69712 6.71 6.97747C6.99 7.25782 7.41 7.25782 7.69 6.97747ZM16.3 11.393C15.88 11.393 15.6 11.6733 15.6 12.0939V14.8974C15.6 15.3179 15.32 15.5982 14.9 15.5982H5.1C4.68 15.5982 4.4 15.3179 4.4 14.8974V12.0939C4.4 11.6733 4.12 11.393 3.7 11.393C3.28 11.393 3 11.6733 3 12.0939V14.8974C3 16.0889 3.91 17 5.1 17H14.9C16.09 17 17 16.0889 17 14.8974V12.0939C17 11.6733 16.72 11.393 16.3 11.393Z" fill="black"/>
</svg>
