<svg width="24" height="24" viewBox="0 0 24 24" fill="none" xmlns="http://www.w3.org/2000/svg">
<path d="M17.728 4.0068C17.5509 3.70286 17.2987 3.45037 16.996 3.27393C16.6933 3.09749 16.3504 3.00311 16.0008 3H7.99917C7.64955 3.00311 7.3067 3.09749 7.00401 3.27393C6.70133 3.45037 6.44913 3.70286 6.272 4.0068L2.27117 10.9932C2.09352 11.3034 2 11.6554 2 12.0136C2 12.3718 2.09352 12.7238 2.27117 13.034L6.272 19.9932C6.44913 20.2971 6.70133 20.5496 7.00401 20.7261C7.3067 20.9025 7.64955 20.9969 7.99917 21H16.0008C16.3504 20.9969 16.6933 20.9025 16.996 20.7261C17.2987 20.5496 17.5509 20.2971 17.728 19.9932L21.7288 13.0068C21.9065 12.6966 22 12.3446 22 11.9864C22 11.6282 21.9065 11.2762 21.7288 10.966L17.728 4.0068ZM15.3734 12C15.3734 12.6727 15.1755 13.3303 14.8049 13.8897C14.4342 14.449 13.9073 14.885 13.2909 15.1424C12.6745 15.3999 11.9963 15.4672 11.3419 15.336C10.6875 15.2048 10.0864 14.8808 9.61466 14.4051C9.14288 13.9294 8.8216 13.3234 8.69144 12.6636C8.56127 12.0038 8.62808 11.3199 8.8834 10.6984C9.13873 10.0768 9.5711 9.54562 10.1258 9.17187C10.6806 8.79813 11.3328 8.59864 12 8.59864C12.8947 8.59864 13.7527 8.957 14.3853 9.59488C15.018 10.2328 15.3734 11.0979 15.3734 12Z" fill="#E60023"/>
</svg>
