<svg width="24" height="24" viewBox="0 0 24 24" fill="none" xmlns="http://www.w3.org/2000/svg">
<path fill-rule="evenodd" clip-rule="evenodd" d="M12.62 3.31603C12.7517 3.25669 12.8977 3.23664 13.0405 3.25828C13.1833 3.27993 13.3168 3.34234 13.425 3.43803L21.645 10.688C21.831 10.8523 21.98 11.0542 22.0821 11.2804C22.1841 11.5066 22.2369 11.7519 22.2369 12C22.2369 12.2482 22.1841 12.4935 22.0821 12.7197C21.98 12.9459 21.831 13.1478 21.645 13.312L13.425 20.562C13.3168 20.6574 13.1833 20.7196 13.0407 20.7411C12.898 20.7626 12.7522 20.7425 12.6206 20.6831C12.4891 20.6238 12.3775 20.5278 12.2992 20.4067C12.2208 20.2855 12.1791 20.1443 12.179 20V16.25C10.231 16.257 8.565 16.31 7.053 16.744C5.443 17.205 3.982 18.108 2.6 19.95C2.50555 20.076 2.37388 20.169 2.22363 20.2159C2.07337 20.2629 1.91216 20.2613 1.76283 20.2115C1.6135 20.1618 1.48361 20.0663 1.39157 19.9386C1.29953 19.8109 1.25 19.6574 1.25 19.5C1.25 14.881 2.779 11.906 5.067 10.102C7.161 8.45203 9.789 7.86203 12.179 7.76503V4.00003C12.1789 3.85567 12.2204 3.71434 12.2987 3.59301C12.3769 3.47168 12.4885 3.37551 12.62 3.31603ZM13.679 5.66103V8.30003C13.679 8.55053 13.5802 8.79092 13.404 8.96898C13.2278 9.14704 12.9885 9.2484 12.738 9.25103C10.376 9.27703 7.884 9.79103 5.995 11.281C4.468 12.485 3.255 14.391 2.875 17.407C3.94527 16.4167 5.2358 15.6951 6.64 15.302C8.53 14.761 10.58 14.751 12.728 14.75C12.98 14.75 13.2216 14.8501 13.3998 15.0283C13.5779 15.2064 13.678 15.4481 13.678 15.7V18.339L20.653 12.188C20.6796 12.1646 20.7009 12.1357 20.7155 12.1034C20.7301 12.0711 20.7376 12.036 20.7376 12.0005C20.7376 11.9651 20.7301 11.93 20.7155 11.8977C20.7009 11.8653 20.6796 11.8365 20.653 11.813L13.679 5.66103Z" fill="#2D72FE"/>
</svg>
