<svg width="24" height="24" viewBox="0 0 24 24" fill="none" xmlns="http://www.w3.org/2000/svg">
<path fill-rule="evenodd" clip-rule="evenodd" d="M12.4241 10.755C10.9923 12.0724 9.59506 13.32 9.59506 13.32C9.54754 13.3605 9.50859 13.4101 9.48052 13.4659C9.45244 13.5217 9.4358 13.5826 9.43157 13.6449C9.42734 13.7072 9.4356 13.7697 9.45588 13.8288C9.47616 13.8879 9.50804 13.9423 9.54965 13.9889C9.59126 14.0355 9.64176 14.0733 9.69818 14.1001C9.7546 14.1269 9.81581 14.1421 9.87821 14.1449C9.94061 14.1477 10.0029 14.138 10.0615 14.1164C10.1201 14.0948 10.1738 14.0617 10.2194 14.019C10.2194 14.019 13.8802 10.7512 15.4432 9.18824C15.6821 8.94974 15.7537 8.76749 15.7664 8.69136C15.782 8.61472 15.7781 8.53539 15.755 8.46067C15.7318 8.38596 15.6902 8.31828 15.6341 8.26386C15.5451 8.17116 15.4231 8.11748 15.2947 8.11461C15.2152 8.11086 15.0382 8.14199 14.8001 8.25411C13.4377 8.89536 8.02006 12.5044 8.02006 12.5044C7.96747 12.5379 7.92209 12.5816 7.88659 12.6328C7.85109 12.6841 7.82618 12.7419 7.81331 12.803C7.80044 12.864 7.79988 12.9269 7.81166 12.9882C7.82343 13.0494 7.84731 13.1077 7.88189 13.1596C7.91647 13.2115 7.96106 13.256 8.01305 13.2904C8.06503 13.3249 8.12337 13.3486 8.18464 13.3602C8.24591 13.3718 8.30888 13.3711 8.36987 13.3581C8.43085 13.3451 8.48863 13.32 8.53981 13.2844C8.53981 13.2844 10.5566 11.9396 12.4241 10.755Z" fill="#2BAAED"/>
<path fill-rule="evenodd" clip-rule="evenodd" d="M12 1.03125C5.946 1.03125 1.03125 5.946 1.03125 12C1.03125 18.054 5.946 22.9688 12 22.9688C18.054 22.9688 22.9688 18.054 22.9688 12C22.9688 5.946 18.054 1.03125 12 1.03125ZM12 1.96875C17.5365 1.96875 22.0312 6.4635 22.0312 12C22.0312 17.5365 17.5365 22.0312 12 22.0312C6.4635 22.0312 1.96875 17.5365 1.96875 12C1.96875 6.4635 6.4635 1.96875 12 1.96875Z" fill="#2BAAED"/>
<path fill-rule="evenodd" clip-rule="evenodd" d="M7.90362 13.2656L8.90674 16.5289C8.9105 16.5409 8.91462 16.5529 8.91912 16.5641C9.026 16.8323 9.13287 16.9879 9.20975 17.0618C9.3485 17.1953 9.49062 17.226 9.60837 17.223C9.77412 17.2181 10.0411 17.1191 10.1469 16.7261C10.1544 16.6973 10.1596 16.668 10.1619 16.6384L10.3134 14.5496L14.276 17.4645C14.6832 17.7735 15.0492 17.8391 15.3264 17.7544C15.6125 17.667 15.8896 17.4049 16.0205 16.8469C16.0212 16.8439 16.0224 16.8405 16.0227 16.8371L17.9787 7.62077C18.095 7.12989 18.0297 6.76314 17.87 6.54902C17.6851 6.29964 17.3352 6.13014 16.7401 6.29102C16.724 6.29509 16.7083 6.30023 16.6929 6.30639L5.20437 10.7625C5.18675 10.7693 5.1695 10.7775 5.15225 10.7861C4.60812 11.0786 4.487 11.4124 4.48512 11.6291C4.48325 11.9205 4.68762 12.2025 5.0345 12.3416C5.045 12.3458 5.05512 12.3499 5.066 12.3529L7.90362 13.2656ZM17.0971 7.17489C17.0926 7.24164 17.0836 7.33239 17.0652 7.40852L17.0622 7.42089L15.107 16.6361C15.0888 16.7028 15.0649 16.7678 15.0357 16.8304C14.9677 16.7981 14.9027 16.7599 14.8415 16.716L14.8344 16.7111L10.1847 13.2915C10.1172 13.242 10.0376 13.2115 9.9543 13.2031C9.87098 13.1948 9.78693 13.2089 9.7109 13.244C9.63486 13.2791 9.5696 13.3339 9.5219 13.4027C9.4742 13.4715 9.44579 13.5519 9.43962 13.6354L9.35525 14.7964L8.72787 12.7564C8.70563 12.6843 8.66635 12.6187 8.61334 12.565C8.56033 12.5113 8.49517 12.4713 8.42337 12.4481L5.70575 11.5736L17.0052 7.19102C17.0356 7.18415 17.0663 7.17877 17.0971 7.17489Z" fill="#2BAAED"/>
<path fill-rule="evenodd" clip-rule="evenodd" d="M9.91581 17.1064L11.9539 15.3461C12.0481 15.2649 12.1061 15.1495 12.1152 15.0255C12.1243 14.9015 12.0838 14.7789 12.0025 14.6848C11.9212 14.5907 11.8059 14.5327 11.6819 14.5236C11.5579 14.5145 11.4353 14.555 11.3412 14.6362L9.30344 16.3965C9.25683 16.4367 9.21859 16.4857 9.19092 16.5407C9.16324 16.5957 9.14667 16.6556 9.14214 16.717C9.13761 16.7784 9.14522 16.84 9.16453 16.8985C9.18384 16.9569 9.21448 17.011 9.25469 17.0576C9.2949 17.1042 9.34389 17.1425 9.39888 17.1701C9.45386 17.1978 9.51376 17.2144 9.57515 17.2189C9.63654 17.2234 9.69823 17.2158 9.75668 17.1965C9.81513 17.1772 9.8692 17.1466 9.91581 17.1064Z" fill="#2BAAED"/>
</svg>
