<svg width="24" height="24" viewBox="0 0 24 24" fill="none" xmlns="http://www.w3.org/2000/svg">
<path d="M5.50305 22.9999C5.38831 22.9597 5.27358 22.9253 5.16458 22.8851C4.47616 22.6325 4.01721 21.9897 4 21.2608C4 21.2263 4 21.1919 4 21.1517C4 15.0505 4 8.955 4 2.85378C4 1.98709 4.50484 1.2926 5.30226 1.07449C5.4801 1.02858 5.66942 1.00562 5.85299 1.00562C8.51488 0.99988 11.1768 1.00562 13.8386 0.999878C14.0337 0.999878 14.1829 1.06302 14.3148 1.19503C16.1965 3.07763 18.0782 4.96596 19.9598 6.84282C20.0975 6.98057 20.1549 7.1298 20.1549 7.31921C20.1491 11.9281 20.1549 16.5371 20.1491 21.1517C20.1491 22.0701 19.6156 22.7359 18.7149 22.9597C18.692 22.9654 18.669 22.9827 18.6404 22.9999C14.2632 22.9999 9.88598 22.9999 5.50305 22.9999ZM13.5002 1.8723C13.3912 1.8723 13.3223 1.8723 13.2535 1.8723C10.8039 1.8723 8.35998 1.8723 5.91036 1.8723C5.23342 1.8723 4.86052 2.23964 4.86052 2.92265C4.86052 8.97796 4.86052 15.0333 4.86052 21.0886C4.86052 21.7659 5.23342 22.1332 5.91036 22.1332C10.0179 22.1332 14.1255 22.1332 18.2331 22.1332C18.9215 22.1332 19.2886 21.7659 19.2886 21.0714C19.2886 16.6805 19.2886 12.2955 19.2886 7.90465C19.2886 7.83004 19.2886 7.75542 19.2886 7.66359C19.1854 7.66359 19.105 7.66359 19.0305 7.66359C17.8372 7.66359 16.6382 7.66359 15.445 7.66359C14.2574 7.66359 13.5002 6.9117 13.5002 5.71785C13.5002 4.52975 13.5002 3.34165 13.5002 2.15355C13.5002 2.06745 13.5002 1.98136 13.5002 1.8723ZM14.3836 2.58402C14.3779 2.6242 14.3722 2.68159 14.3722 2.74473C14.3722 3.7549 14.3664 4.76508 14.3722 5.76951C14.3722 6.41809 14.7508 6.79117 15.3991 6.79117C16.4087 6.79117 17.4184 6.79117 18.4224 6.79117C18.4855 6.79117 18.5428 6.78543 18.5773 6.77969C17.1889 5.38496 15.7834 3.98449 14.3836 2.58402Z" fill="#41CA00"/>
<path d="M12.0489 16.8077C10.9646 16.8077 9.87463 16.8077 8.79038 16.8077C8.72153 16.8077 8.64696 16.8077 8.57812 16.802C8.3257 16.7675 8.16507 16.5954 8.1708 16.36C8.17654 16.1305 8.34291 15.9583 8.59533 15.9353C8.66417 15.9296 8.73875 15.9296 8.80759 15.9296C10.9876 15.9296 13.1676 15.9296 15.3476 15.9296C15.4394 15.9296 15.5369 15.9296 15.6229 15.9468C15.8409 15.987 15.9786 16.1591 15.9786 16.3658C15.9786 16.5724 15.8409 16.7446 15.6229 16.7905C15.5426 16.8077 15.4508 16.8077 15.3648 16.8077C14.2633 16.8077 13.1561 16.8077 12.0489 16.8077Z" fill="#41CA00"/>
<path d="M12.0656 12.9149C10.9527 12.9149 9.83401 12.9149 8.72107 12.9091C8.60633 12.9091 8.47439 12.8919 8.37113 12.8403C8.20476 12.7542 8.14165 12.5877 8.17607 12.3983C8.21623 12.2032 8.34244 12.0884 8.53749 12.0539C8.60634 12.0424 8.68091 12.0482 8.74975 12.0482C10.9642 12.0482 13.1843 12.0482 15.3987 12.0482C15.4274 12.0482 15.4561 12.0482 15.4848 12.0482C15.7946 12.0539 15.9839 12.2261 15.9839 12.4901C15.9781 12.7484 15.7946 12.9149 15.4963 12.9149C14.8767 12.9206 14.2514 12.9149 13.6318 12.9149C13.104 12.9149 12.582 12.9149 12.0656 12.9149Z" fill="#41CA00"/>
<path d="M12.0779 13.9822C13.1851 13.9822 14.2923 13.9822 15.3995 13.9822C15.4971 13.9822 15.6003 13.9879 15.6921 14.0166C15.8872 14.074 16.0019 14.2692 15.979 14.4643C15.956 14.6537 15.8183 14.8087 15.6233 14.8374C15.5372 14.8489 15.4512 14.8489 15.3651 14.8489C13.1679 14.8489 10.9765 14.8489 8.77925 14.8489C8.71041 14.8489 8.63583 14.8489 8.56699 14.8431C8.33752 14.8202 8.17689 14.6595 8.16541 14.4413C8.15394 14.2175 8.30309 14.0281 8.53256 13.9879C8.60714 13.9764 8.68746 13.9764 8.76778 13.9764C9.87498 13.9822 10.9765 13.9822 12.0779 13.9822Z" fill="#41CA00"/>
<path d="M10.9531 17.8729C11.7104 17.8729 12.4677 17.8729 13.2249 17.8729C13.4888 17.8729 13.6552 17.9877 13.7068 18.1829C13.7814 18.4698 13.5921 18.7224 13.2766 18.7396C13.0413 18.7511 12.8061 18.7453 12.5709 18.7453C11.3146 18.7453 10.0525 18.7453 8.7961 18.7453C8.733 18.7453 8.66989 18.7511 8.60105 18.7453C8.34289 18.7224 8.16505 18.5387 8.17079 18.3034C8.17653 18.0623 8.34863 17.8844 8.61826 17.8844C9.18046 17.8787 9.74841 17.8787 10.3106 17.8787C10.5229 17.8729 10.7351 17.8729 10.9531 17.8729Z" fill="#41CA00"/>
</svg>
