<svg width="24" height="24" viewBox="0 0 24 24" fill="none" xmlns="http://www.w3.org/2000/svg">
<path d="M9.91578 7.00722C9.91578 7.81059 9.26451 8.46186 8.46114 8.46186H3.45465C2.65128 8.46186 2 7.81059 2 7.00722V3.45465C2 2.65128 2.65128 2 3.45465 2H8.4611C9.26451 2 9.91578 2.65128 9.91578 3.45465V7.00722ZM21.0625 11.5305C21.0625 12.3339 20.4112 12.9852 19.6079 12.9852H14.4398C13.6364 12.9852 12.9852 12.3339 12.9852 11.5305V3.45465C12.9852 2.65128 13.6364 2 14.4398 2H19.6078C20.4112 2 21.0625 2.65128 21.0625 3.45465V11.5305ZM21.0625 19.6079C21.0625 20.4112 20.4112 21.0625 19.6079 21.0625H14.4398C13.6364 21.0625 12.9852 20.4112 12.9852 19.6079V17.6708C12.9852 16.8674 13.6364 16.2161 14.4398 16.2161H19.6078C20.4112 16.2161 21.0625 16.8674 21.0625 17.6707V19.6079ZM9.91578 19.6079C9.91578 20.4112 9.26451 21.0625 8.46114 21.0625H3.45465C2.65128 21.0625 2 20.4112 2 19.6079V12.9859C2 12.1825 2.65128 11.5312 3.45465 11.5312H8.4611C9.26451 11.5312 9.91578 12.1825 9.91578 12.9859V19.6079Z" stroke="#FF6437" stroke-width="1.3" stroke-miterlimit="10" stroke-linecap="round" stroke-linejoin="round"/>
</svg>
